<svg width="20" height="20" viewBox="0 0 20 20" fill="none" xmlns="http://www.w3.org/2000/svg">
<path d="M1.96996 10.7984C1.65375 8.60088 1.49565 7.50211 1.94604 6.56266C2.39642 5.6232 3.35506 5.05215 5.27232 3.91005L6.42636 3.2226C8.16743 2.18545 9.03797 1.66687 9.9999 1.66687C10.9618 1.66687 11.8324 2.18544 13.5734 3.22259L14.7275 3.91004C16.6447 5.05215 17.6034 5.6232 18.0538 6.56266C18.5041 7.50211 18.346 8.60088 18.0298 10.7984L17.7975 12.4129C17.3914 15.2357 17.1883 16.6472 16.209 17.4904C15.2298 18.3335 13.7938 18.3335 10.9216 18.3335H9.07817C6.20604 18.3335 4.76997 18.3335 3.79075 17.4904C2.81153 16.6472 2.60844 15.2357 2.20226 12.4129L1.96996 10.7984Z" stroke="#1C274C" stroke-width="1.25"/>
<path d="M12.5 10.8334L10 10.8334M10 10.8334L7.5 10.8334M10 10.8334L10 8.33337M10 10.8334L10 13.3334" stroke="#1C274C" stroke-width="1.25" stroke-linecap="round"/>
</svg>
