<svg width="24" height="24" viewBox="0 0 24 24" fill="none" xmlns="http://www.w3.org/2000/svg">
<path d="M12 4.99982C13.3352 4.99982 14.6156 5.50549 15.5597 6.40559C16.5038 7.30568 17.0342 8.52647 17.0342 9.7994C17.0342 11.7683 17.4491 13.2427 17.9872 14.3269C18.6746 15.7122 19.0184 16.4048 18.9992 16.563C18.977 16.7477 18.9485 16.7985 18.807 16.9063C18.6857 16.9988 18.0825 16.9988 16.8759 16.9988H7.12411C5.91751 16.9988 5.31423 16.9988 5.19295 16.9063C5.05148 16.7985 5.02306 16.7477 5.00076 16.563C4.98164 16.4048 5.32537 15.7122 6.01284 14.3269C6.5509 13.2427 6.96584 11.7683 6.96584 9.7994C6.96584 8.52647 7.49622 7.30568 8.4403 6.40559C9.38439 5.50549 10.6648 4.99982 12 4.99982ZM12 4.99982V3M9.53326 19.9985C10.1916 20.6217 11.0565 21 12.0037 21C12.9509 21 13.8157 20.6217 14.4742 19.9985" stroke="#A9A9A9" stroke-width="1.5" stroke-linecap="round" stroke-linejoin="round"/>
<path d="M16.6 10.2C18.5883 10.2 20.2 8.58822 20.2 6.6C20.2 4.61178 18.5883 3 16.6 3C14.6117 3 13 4.61178 13 6.6C13 8.58822 14.6117 10.2 16.6 10.2Z" fill="#DF4144"/>
</svg>
