<svg width="24" height="24" viewBox="0 0 24 24" fill="none" xmlns="http://www.w3.org/2000/svg">
<path d="M18.3016 7.83333C18.4922 6.74603 17.6555 5.75 16.5516 5.75H7.44843C6.34456 5.75 5.50789 6.74603 5.69841 7.83333" stroke="#1F1E1E" stroke-width="1.25"/>
<path d="M16.5833 5.75008C16.607 5.53418 16.6188 5.42621 16.619 5.33704C16.6209 4.48402 15.9783 3.76728 15.1302 3.67626C15.0415 3.66675 14.9329 3.66675 14.7157 3.66675H9.28422C9.06702 3.66675 8.95841 3.66675 8.86975 3.67626C8.0216 3.76728 7.37907 4.48402 7.38092 5.33704C7.38112 5.42621 7.39294 5.53417 7.41659 5.75008" stroke="#1F1E1E" stroke-width="1.25"/>
<path d="M14.5 17H9.5" stroke="#1F1E1E" stroke-width="1.25" stroke-linecap="round"/>
<path d="M3.98622 13.4941C3.61453 10.8578 3.42868 9.53963 4.21856 8.68644C5.00843 7.83325 6.41461 7.83325 9.22695 7.83325H14.773C17.5853 7.83325 18.9915 7.83325 19.7814 8.68644C20.5712 9.53963 20.3854 10.8578 20.0137 13.4941L19.6612 15.9941C19.3697 18.0615 19.224 19.0952 18.4763 19.7142C17.7287 20.3333 16.626 20.3333 14.4205 20.3333H9.57943C7.37396 20.3333 6.27123 20.3333 5.52357 19.7142C4.77592 19.0952 4.63018 18.0615 4.33869 15.9941L3.98622 13.4941Z" stroke="#1F1E1E" stroke-width="1.25"/>
</svg>
