<svg width="20" height="20" viewBox="0 0 20 20" fill="none" xmlns="http://www.w3.org/2000/svg">
<path d="M4.14905 6.07094C2.49414 5.40898 1.66669 5.078 1.66669 4.66671C1.66669 4.25542 2.49414 3.92444 4.14905 3.26247L6.48944 2.32632C8.14434 1.66436 8.97179 1.33337 10 1.33337C11.0282 1.33337 11.8557 1.66436 13.5106 2.32632L15.851 3.26247C17.5059 3.92444 18.3334 4.25542 18.3334 4.66671C18.3334 5.078 17.5059 5.40898 15.851 6.07094L13.5106 7.0071C11.8557 7.66906 11.0282 8.00004 10 8.00004C8.97179 8.00004 8.14434 7.66906 6.48944 7.0071L4.14905 6.07094Z" stroke="#1C274C" stroke-width="1.25"/>
<path d="M6.48944 6.99292L5.31924 7.461L4.14905 7.92908C2.49414 8.59104 1.66669 8.92202 1.66669 9.33331C1.66669 9.7446 2.49414 10.0756 4.14905 10.7375L6.48944 11.6737C8.14434 12.3357 8.97179 12.6666 10 12.6666C11.0282 12.6666 11.8557 12.3357 13.5106 11.6737L15.851 10.7375C17.5059 10.0756 18.3334 9.7446 18.3334 9.33331C18.3334 8.92202 17.5059 8.59104 15.851 7.92908L13.5106 6.99292" stroke="#1C274C" stroke-width="1.25"/>
<path d="M6.48944 11.6595L4.14905 12.5957C2.49414 13.2577 1.66669 13.5886 1.66669 13.9999C1.66669 14.4112 2.49414 14.7422 4.14905 15.4042L6.48944 16.3403C8.14434 17.0023 8.97179 17.3333 10 17.3333C11.0282 17.3333 11.8557 17.0023 13.5106 16.3403L15.851 15.4042C17.5059 14.7422 18.3334 14.4112 18.3334 13.9999C18.3334 13.5886 17.5059 13.2577 15.851 12.5957L13.5106 11.6595" stroke="#1C274C" stroke-width="1.25"/>
</svg>
